<?xml version="1.0" encoding="iso-8859-1"?>
<!-- Generator: Adobe Illustrator 19.0.0, SVG Export Plug-In . SVG Version: 6.00 Build 0)  -->
<svg version="1.1" id="Layer_1" xmlns="http://www.w3.org/2000/svg" xmlns:xlink="http://www.w3.org/1999/xlink" x="0px" y="0px"
	 viewBox="0 0 512 512" style="enable-background:new 0 0 512 512;" xml:space="preserve">
<g>
	<g>
		<path d="M265.309,109.382c-4.655-5.818-13.964-5.818-18.618,0c-4.655,6.982-48.873,67.491-48.873,102.4
			c0,31.418,25.6,55.854,58.182,55.854c32.582,0,58.182-25.6,58.182-55.854C314.182,176.873,269.964,116.364,265.309,109.382z
			 M256,244.364c-19.782,0-34.909-15.127-34.909-32.582c0-17.455,18.618-50.036,34.909-74.473
			c16.291,23.273,34.909,57.018,34.909,74.473C290.909,230.4,275.782,244.364,256,244.364z"/>
	</g>
</g>
<g>
	<g>
		<path d="M384,0H128c-19.782,0-34.909,15.127-34.909,34.909v290.909c0,32.582,25.6,58.182,58.182,58.182h151.273v23.273
			c0,6.982-4.655,11.636-11.636,11.636h-69.818c-6.982,0-11.636-4.655-11.636-11.636c0-6.982-4.655-11.636-11.636-11.636
			s-11.636,4.655-11.636,11.636c0,19.782,15.127,34.909,34.909,34.909h23.273v23.273c0,25.6,20.945,46.545,46.545,46.545
			c6.982,0,11.636-4.655,11.636-11.636s-4.655-11.636-11.636-11.636c-12.8,0-23.273-10.473-23.273-23.273v-23.273h23.273
			c19.782,0,34.909-15.127,34.909-34.909v-34.909c0-6.982-4.655-11.636-11.636-11.636H151.273
			c-19.782,0-34.909-15.127-34.909-34.909V34.909c0-6.982,4.655-11.636,11.636-11.636h256c6.982,0,11.636,4.655,11.636,11.636
			v46.545h-23.273c-6.982,0-11.636,4.655-11.636,11.636c0,6.982,4.655,11.636,11.636,11.636h23.273v46.545h-34.909
			c-6.982,0-11.636,4.655-11.636,11.636c0,6.982,4.655,11.636,11.636,11.636h34.909v46.545h-23.273
			c-6.982,0-11.636,4.655-11.636,11.636s4.655,11.636,11.636,11.636h23.273v46.545h-34.909c-6.982,0-11.636,4.655-11.636,11.636
			s4.655,11.636,11.636,11.636h34.909v11.636c0,19.782-15.127,34.909-34.909,34.909c-6.982,0-11.636,4.655-11.636,11.636
			S353.745,384,360.727,384c32.582,0,58.182-25.6,58.182-58.182V34.909C418.909,15.127,403.782,0,384,0z"/>
	</g>
</g>
<g>
</g>
<g>
</g>
<g>
</g>
<g>
</g>
<g>
</g>
<g>
</g>
<g>
</g>
<g>
</g>
<g>
</g>
<g>
</g>
<g>
</g>
<g>
</g>
<g>
</g>
<g>
</g>
<g>
</g>
</svg>
