<?xml version="1.0" encoding="iso-8859-1"?>
<!-- Generator: Adobe Illustrator 19.0.0, SVG Export Plug-In . SVG Version: 6.00 Build 0)  -->
<svg version="1.1" id="Layer_1" xmlns="http://www.w3.org/2000/svg" xmlns:xlink="http://www.w3.org/1999/xlink" x="0px" y="0px"
	 viewBox="0 0 512 512" style="enable-background:new 0 0 512 512;" xml:space="preserve">
<g>
	<g>
		<path d="M415.708,179.096l17.643,17.643l21.508-21.508l-56.796-56.796l-21.508,21.508l17.644,17.644l-11.764,11.764
			c-25.43-21.765-56.512-37.098-90.711-43.466v-13.106c25.719-5.514,45.063-28.413,45.063-55.754C336.787,25.582,311.205,0,279.76,0
			h-47.519c-31.445,0-57.027,25.582-57.027,57.026c0,27.34,19.344,50.24,45.063,55.754v13.106
			c-34.199,6.368-65.282,21.702-90.711,43.466l-11.764-11.764l17.644-17.644l-21.508-21.508l-56.796,56.796l21.508,21.507
			l17.643-17.643l11.764,11.764c-29.137,34.044-46.762,78.217-46.762,126.435C61.294,424.656,148.638,512,256,512
			s194.706-87.344,194.706-194.705c0-48.218-17.626-92.391-46.762-126.435L415.708,179.096z M205.631,57.026
			c0-14.672,11.937-26.609,26.61-26.609h47.519c14.673,0,26.61,11.937,26.61,26.609c0,10.42-6.024,19.455-14.77,23.82
			c-1.457-18.369-16.861-32.875-35.599-32.875c-18.738,0-34.142,14.506-35.599,32.875C211.655,76.482,205.631,67.446,205.631,57.026
			z M261.306,83.694v38.97c-0.007,0-0.013,0-0.02,0c-1.757-0.048-3.518-0.074-5.286-0.074c-1.768,0-3.529,0.026-5.287,0.074
			c-0.005-0.001-0.012-0.001-0.018-0.001V83.694c0-2.925,2.381-5.305,5.306-5.305S261.306,80.77,261.306,83.694z M420.289,317.295
			c0,90.588-73.699,164.287-164.289,164.287S91.711,407.884,91.711,317.295c0-84.357,63.912-154.056,145.854-163.248
			c1.357-0.151,2.714-0.287,4.073-0.406c0.149-0.013,0.298-0.027,0.447-0.04c1.413-0.12,2.826-0.219,4.236-0.302
			c0.145-0.008,0.288-0.019,0.433-0.027c1.365-0.077,2.726-0.133,4.085-0.176c0.201-0.006,0.399-0.017,0.6-0.023
			c1.526-0.044,3.048-0.066,4.561-0.066s3.035,0.023,4.561,0.066c0.201,0.005,0.399,0.016,0.6,0.023
			c1.359,0.044,2.72,0.099,4.085,0.176c0.145,0.008,0.289,0.019,0.433,0.027c1.41,0.083,2.824,0.182,4.236,0.302
			c0.149,0.012,0.298,0.027,0.447,0.04c1.359,0.119,2.716,0.255,4.073,0.406C356.377,163.24,420.289,232.938,420.289,317.295z"/>
	</g>
</g>
<g>
	<g>
		<path d="M256,173.284h-15.209v159.218H400.01v-15.209C400.01,237.886,335.408,173.284,256,173.284z M271.209,302.085v-97.37
			c50.493,6.787,90.583,46.877,97.371,97.37H271.209z"/>
	</g>
</g>
<g>
	<g>
		
			<rect x="149.721" y="211.013" transform="matrix(0.7071 -0.7071 0.7071 0.7071 -111.6534 182.881)" width="30.417" height="30.409"/>
	</g>
</g>
<g>
	<g>
		
			<rect x="331.869" y="393.176" transform="matrix(0.7071 -0.7071 0.7071 0.7071 -187.1122 365.0332)" width="30.417" height="30.41"/>
	</g>
</g>
<g>
	<g>
		
			<rect x="149.715" y="393.163" transform="matrix(0.7071 -0.7071 0.7071 0.7071 -240.4585 236.2259)" width="30.41" height="30.417"/>
	</g>
</g>
<g>
	<g>
		<rect x="240.793" y="430.901" width="30.417" height="30.408"/>
	</g>
</g>
<g>
	<g>
		<rect x="111.987" y="302.084" width="30.409" height="30.417"/>
	</g>
</g>
<g>
</g>
<g>
</g>
<g>
</g>
<g>
</g>
<g>
</g>
<g>
</g>
<g>
</g>
<g>
</g>
<g>
</g>
<g>
</g>
<g>
</g>
<g>
</g>
<g>
</g>
<g>
</g>
<g>
</g>
</svg>
