<?xml version="1.0" standalone="no"?>
<!DOCTYPE svg PUBLIC "-//W3C//DTD SVG 20010904//EN"
 "http://www.w3.org/TR/2001/REC-SVG-20010904/DTD/svg10.dtd">
<svg version="1.0" xmlns="http://www.w3.org/2000/svg"
 width="735.000000pt" height="407.000000pt" viewBox="0 0 735.000000 407.000000"
 preserveAspectRatio="xMidYMid meet">

<g transform="translate(0.000000,407.000000) scale(0.100000,-0.100000)"
fill="#000000" stroke="none">
<path d="M2342 3998 c-6 -7 -25 -78 -42 -158 -60 -279 -126 -521 -211 -770
-146 -434 -260 -713 -367 -898 -33 -57 -40 -63 -65 -60 -26 3 -32 10 -57 78
-61 169 -122 256 -206 298 -52 25 -57 26 -123 14 -127 -21 -162 -39 -398 -200
-34 -24 -92 -53 -130 -67 -126 -44 -181 -49 -470 -48 l-273 1 0 -129 0 -129
198 0 c356 0 494 23 677 115 78 39 141 81 216 144 114 94 169 126 235 137 87
13 132 -23 181 -148 13 -35 28 -72 32 -83 86 -212 88 -215 163 -215 63 0 101
22 166 98 158 185 279 434 367 755 43 156 59 196 69 166 2 -8 9 -237 16 -509
27 -1230 54 -2018 71 -2081 15 -58 71 -68 112 -20 28 33 31 47 117 456 34 160
68 322 76 360 49 230 118 565 135 660 10 61 33 173 50 250 17 77 41 190 55
251 13 61 24 117 24 123 0 6 7 28 15 48 13 32 17 35 29 22 8 -8 31 -63 51
-124 52 -151 77 -205 115 -248 63 -72 130 -41 189 88 22 47 47 88 56 91 20 8
75 -28 145 -95 63 -60 149 -128 200 -158 100 -59 319 -57 465 4 47 20 176 103
255 165 126 98 275 154 388 145 166 -13 271 -128 363 -397 45 -133 59 -164 69
-154 4 5 27 54 50 109 93 221 248 498 368 658 281 373 503 510 802 493 229
-12 361 -81 435 -225 79 -156 78 -377 -2 -535 -82 -163 -345 -468 -536 -624
-120 -98 -223 -165 -412 -267 -216 -118 -451 -257 -560 -334 -143 -100 -292
-251 -367 -374 -17 -26 -36 -47 -43 -47 -9 0 -16 17 -20 47 -30 222 -65 355
-135 501 -78 162 -206 348 -306 444 -32 31 -50 39 -104 47 -84 14 -100 14
-100 -2 0 -6 33 -62 74 -123 142 -212 281 -478 335 -639 48 -143 54 -211 47
-477 -4 -159 -3 -245 5 -265 20 -53 92 -113 137 -113 16 0 22 17 41 118 27
137 68 230 152 342 53 70 162 176 233 227 17 12 36 26 41 30 23 18 155 103
160 103 4 0 77 42 163 93 86 52 229 136 317 188 436 256 805 556 949 772 75
113 149 273 177 382 32 126 33 291 1 390 -73 232 -270 411 -504 459 -100 21
-292 21 -378 0 -182 -43 -371 -157 -531 -321 -165 -169 -265 -312 -386 -551
-39 -78 -74 -139 -76 -135 -3 5 -15 35 -26 68 -44 124 -117 201 -249 262 -72
34 -83 36 -177 36 -113 -1 -182 -19 -322 -83 -84 -39 -146 -82 -289 -202 -109
-91 -168 -118 -262 -118 -63 0 -83 5 -150 36 -66 32 -95 54 -202 161 -68 69
-137 131 -152 139 -15 8 -50 14 -78 14 -68 0 -107 -30 -154 -120 -41 -77 -49
-86 -64 -67 -6 6 -43 107 -82 222 -40 116 -83 237 -96 269 -25 61 -58 106 -79
106 -30 0 -67 -74 -105 -205 -33 -115 -132 -451 -177 -599 -24 -82 -66 -227
-93 -321 -96 -337 -105 -338 -113 -12 -4 133 -11 550 -17 927 -5 377 -12 820
-14 985 -3 165 -9 314 -13 330 -10 33 -51 46 -71 23z"/>
</g>
</svg>
