<?xml version="1.0" encoding="utf-8"?>
<!-- Generator: Adobe Illustrator 19.0.0, SVG Export Plug-In . SVG Version: 6.00 Build 0)  -->
<svg version="1.1" id="Layer_1" xmlns="http://www.w3.org/2000/svg" xmlns:xlink="http://www.w3.org/1999/xlink" x="0px" y="0px"
	 viewBox="1000 -6 2500 513" style="enable-background:new 1000 -6 2500 513;" xml:space="preserve">
<style type="text/css">
	.st0{fill:#FFFFFF;}
</style>
<g id="_x23_3cb54eff">
	<path class="st0" d="M1302.6-6c53.2,8.7,103.2,38.1,135,81.8c6.4,8.7,12.7,18.3,17.5,28.6c-20.6,14.3-41.3,27.8-61.1,42.1
		c-3.2,2.4-5.6,4-9.5,5.6c-9.5-23.8-26.2-45.3-47.6-59.6c-15.9-10.3-34.1-17.5-52.4-21.4C1289.9,45.6,1296.3,20.2,1302.6-6L1302.6-6
		z M1110.4,17c24.6-7.9,53.2,4.8,63.5,27.8c8.7,17.5,6.4,40.5-5.6,55.6c-15.1,19.1-43.7,26.2-65.1,15.1
		c-14.3-7.1-25.4-20.6-28.6-36.5c-2.4-11.9-1.6-24.6,4.8-35.7C1085.8,30.5,1097.7,21.8,1110.4,17z M1000.9,287.8
		c29.4-0.8,58,0,87.4,0c5.6,31.8,19.1,61.9,40.5,85.8c16.7,19.1,38.1,32.6,61.1,41.3c31.8,11.9,66.7,13.5,100.1,5.6
		c30.2-7.1,57.2-23.8,77-48.4c13.5-16.7,23.8-35.7,29.4-56.4c26.2,7.1,50.8,16.7,77,24.6c-0.8,7.9-4,15.9-7.1,23.8
		c-17.5,45.3-50,84.2-92.1,108.8c-27,15.9-58,26.2-88.9,30.2c-61.1,7.9-125.5-4.8-177.1-38.9c-27.8-18.3-52.4-42.9-69.9-71.5
		C1017.5,362.5,1005.6,325.9,1000.9,287.8z"/>
</g>
<path class="st0" d="M1543.2,216.4c37.3-60.4,119.9-88.1,185.8-60.4c20.6,7.9,34.9,24.6,46.9,42.9c-0.8-14.3-0.8-28.6-0.8-43.7h79.4
	c1.6,113.6-3.2,227.1,3.2,340.7h-77.8c-0.8-15.9-1.6-31-2.4-46.9c-40.5,72.3-146.1,69.9-203.3,20.6
	C1503.5,407.7,1494,293.4,1543.2,216.4 M1663.9,217.9c-73.1,18.3-85.8,116.7-52.4,173.9c25.4,46.9,96.9,56.4,133.4,17.5
	c36.5-38.1,39.7-100.1,18.3-146.9C1746.5,225.9,1702.1,208.4,1663.9,217.9z M2260.3,179.8c58-47.6,147.7-46.9,207.3-1.6
	c50,39.7,63.5,108,58.8,168.4c-83.4,0.8-167.6,0-250.9,0c4,33.4,22.2,67.5,54.8,80.2c46.9,23,108.8,0.8,125.5-50
	c23,7.1,45.3,14.3,68.3,20.6c-12.7,34.9-35.7,67.5-69.1,85.8c-65.1,37.3-155.6,26.2-208.9-27.8
	C2173,382.3,2178.5,244.9,2260.3,179.8 M2297.6,241c-11.9,12.7-15.9,30.2-20.6,46.1c56.4,0,113.6,1.6,169.9-1.6
	c-5.6-20.6-11.9-42.9-30.2-56.4C2382.6,203.6,2326.2,206.8,2297.6,241L2297.6,241z M2647.9,176.6c54.8-42.1,135-42.1,193-6.4
	c57.2,37.3,76.2,112,68.3,176.3c-83.4-0.8-166.8,0-250.1,0c4,19.9,8.7,40.5,22.2,55.6c30.2,37.3,90.5,44.5,128.6,15.9
	c14.3-10.3,20.6-27.8,31-40.5c22.2,5.6,44.5,13.5,66.7,20.6c-12.7,35.7-36.5,68.3-70.7,86.6c-64.3,34.9-151.7,25.4-204.1-26.2
	C2554.9,384.7,2561.3,241,2647.9,176.6 M2679.6,241.8c-11.1,12.7-15.1,29.4-19.9,45.3h169.1c-4-19.9-9.5-41.3-26.2-55.6
	C2768.6,202.9,2709,205.2,2679.6,241.8z M3064.8,196.5c45.3-69.9,165.2-69.1,203.3,7.1c36.5-62.7,127.9-77,185-34.9
	c31,23.8,45.3,63.5,45.3,101.6c0.8,74.6,0,149.3,0,223.9h-78.6V293.4c0-20.6-3.2-42.9-17.5-58c-30.2-30.2-88.1-22.2-108,15.9
	c-10.3,17.5-10.3,38.9-10.3,58v185h-79.4c-0.8-72.3,0.8-144.5-0.8-216c0-31.8-26.2-61.1-58.8-60.4c-38.1-5.6-73.9,25.4-76.2,62.7
	c-2.4,71.5,0,142.9-0.8,213.6h-80.2V153.6h77.8C3065.6,168.7,3065.6,183,3064.8,196.5L3064.8,196.5z M1957.8,154.4h79.4
	c0,17.5-0.8,35.7-0.8,53.2c22.2-44.5,73.9-62.7,120.7-56.4v83.4c-27.8-0.8-58.8-4-82.6,13.5c-25.4,16.7-34.1,49.2-34.9,77.8
	c-0.8,56.4,0,112.8-0.8,169.1h-81V154.4z"/>
</svg>
